<?xml version="1.0" standalone="no"?><!DOCTYPE svg PUBLIC "-//W3C//DTD SVG 1.1//EN" "http://www.w3.org/Graphics/SVG/1.1/DTD/svg11.dtd"><svg t="1774320055729" class="icon" viewBox="0 0 5581 1024" version="1.1" xmlns="http://www.w3.org/2000/svg" p-id="4778" xmlns:xlink="http://www.w3.org/1999/xlink" width="1090.0390625" height="200"><path d="M10.752 972.4416c56.832-6.144 92.3136-16.6912 106.496-31.5904 14.2336-14.8992 21.2992-53.8112 21.2992-116.736V194.3552c0-52.0192-7.936-85.8624-23.7568-101.4784-15.872-15.616-50.5344-25.344-103.9872-29.1328V36.864H414.72v26.9824c-53.504 3.7888-88.2688 13.5168-104.3456 29.1328-16.128 15.616-24.1664 49.4592-24.1664 101.4784V477.696h440.832V194.4064c0-52.0192-7.7824-85.8624-23.3984-101.4784-15.616-15.616-50.432-25.344-104.3456-29.1328V36.864h403.9168v26.9824c-53.504 3.7888-88.1664 13.5168-104.0384 29.1328-15.872 15.616-23.7568 49.4592-23.7568 101.4784v646.7072c0 52.992 7.936 86.9888 23.7568 101.888 15.872 14.848 50.5344 24.7296 104.0384 29.44v26.2656h-403.968v-26.2656c57.2928-5.632 92.8768-16.0768 106.8544-31.232 13.9776-15.1552 20.992-54.1696 20.992-117.1456v-282.5216H286.208v299.5712c0 52.992 7.9872 87.04 24.064 102.2464 16.128 15.1552 50.8928 24.832 104.3968 29.0816v26.2656H10.752v-26.2656z m1040.5888-266.24c24.576 65.3312 53.4528 117.4016 86.5792 156.2112 57.7536 67.6864 129.4336 101.5296 215.0912 101.5296 46.3872 0 86.528-14.6944 120.32-44.032 33.8432-29.3376 50.7904-70.2464 50.7904-122.7776 0-47.36-17.0496-88.5248-51.1488-123.5456-22.2208-22.2208-69.12-55.6032-140.544-100.096L1208.2176 496.128c-37.376-23.6544-67.2256-47.5648-89.4464-71.68-41.1648-45.9264-61.7472-96.5632-61.7472-151.9104 0-73.3696 24.3712-134.4512 73.1136-183.1936S1243.4432 16.2304 1323.9296 16.2304c33.1264 0 73.0112 8.192 119.6032 24.5248 46.592 16.3328 73.216 24.4736 79.872 24.4736 17.9712 0 30.4128-4.2496 37.2736-12.8 6.8608-8.4992 12.1856-20.5824 15.9744-36.1984h29.7984L1638.4 325.7344h-34.816c-23.6544-93.184-61.5936-158.2592-113.92-195.1744-52.2752-36.9152-103.9872-55.3984-155.136-55.3984-39.7312 0-74.3936 11.7248-103.936 35.1232-29.5936 23.4496-44.3904 55.9616-44.3904 97.6384 0 37.376 11.3664 69.3248 34.0992 95.8464 22.6816 26.9312 57.9584 55.0912 105.728 84.48l127.7952 78.7456c79.9744 49.2544 136.2944 94.4128 168.96 135.6288 32.1536 41.6256 48.2816 90.8288 48.2816 147.6608 0 76.1856-28.7744 139.776-86.272 190.976-57.4976 51.0464-130.9696 76.6464-220.416 76.6464-44.9536 0-91.904-8.5504-140.9024-25.6-48.9984-16.9984-77.0048-25.5488-84.1216-25.5488-17.0496 0-28.5184 5.2224-34.4576 15.616-5.888 10.4448-9.7792 21.504-11.6736 33.3824h-31.9488l-43.3152-309.504h33.3824z m1067.52 239.9744c74.24 0 136.4992-14.4384 186.6752-43.3152 50.176-28.8256 75.264-84.224 75.264-166.0928 0-81.408-29.3376-137.0112-88.064-166.8096-58.6752-29.7984-133.4272-44.7488-224.256-44.7488h-42.2912c-5.888 0-15.0016-0.2048-27.3408-0.6656v361.984c0 25.088 7.168 41.3184 21.2992 48.64 14.2336 7.3728 47.104 11.008 98.7136 11.008z m-407.5008 26.2656c58.6752-3.328 96.6656-12.3904 113.9712-27.3408 17.2544-14.848 25.9072-49.5616 25.9072-103.936V194.3552c0-53.4528-8.704-87.9104-25.9072-103.2704-17.3056-15.36-55.296-24.4736-113.9712-27.3408V36.864h407.5008c116.3776 0 208.7936 18.7392 277.1968 56.1152 68.352 37.376 102.5536 101.7344 102.5536 193.024 0 68.6592-23.9104 120.7296-71.68 156.2112-26.9824 20.3776-67.4304 37.1712-121.3952 50.432 66.7136 16.0768 123.7504 42.9056 171.0592 80.5376 47.36 37.632 71.0144 90.2656 71.0144 157.952 0 113.6128-52.5312 191.6928-157.5936 234.2912-55.3984 22.2208-123.5456 33.3312-204.4416 33.3312h-474.2144v-26.2656z m425.984-505.4464c48.6912-0.9216 89.1392-8.704 121.344-23.3984 61.5424-28.416 92.2624-79.2576 92.2624-152.6272 0-86.6304-35.4816-145.0496-106.496-175.36-39.2704-16.5376-98.8672-24.832-178.8416-24.832-30.3104 0-48.9984 2.6112-56.1152 7.8336-7.0656 5.1712-10.6496 19.4048-10.6496 42.5984v327.936l138.4448-2.1504zM3114.5984 19.8144c52.5312 0 106.496 7.7824 161.8432 23.3984 55.3984 15.616 86.3744 23.4496 93.0304 23.4496 13.7216 0 26.7264-3.7888 39.0144-11.3664 12.288-7.5776 20.8384-19.456 25.6-35.4816h30.5152l13.4656 326.5024h-33.3824c-19.4048-64.8192-44.6976-117.0944-75.9296-156.8768-59.648-74.752-139.8784-112.128-240.64-112.128-101.7856 0-184.9344 40.192-249.5488 120.6784-64.6144 80.4352-96.8704 191.1808-96.8704 332.1856 0 129.6896 33.9456 233.216 101.888 310.5792 67.8912 77.4144 153.9072 116.0704 258.048 116.0704 75.2128 0 144.5376-17.9712 207.9232-53.9648 36.4544-20.3264 76.4416-51.0976 120.0128-92.2624l26.9312 26.9824a487.3216 487.3216 0 0 1-119.9616 107.1616c-81.408 52.0704-169.6256 78.1312-264.7552 78.1312-156.16 0-280.1664-49.9712-371.968-149.8112C2655.1296 780.8 2612.736 665.6 2612.736 527.36c0-141.5168 44.6976-260.3008 134.144-356.352C2841.1392 70.144 2963.712 19.8144 3114.6496 19.8144z" fill="#000000" p-id="4779"></path><path d="M5088.4096 979.7632h-967.168v6.2976l-493.0048-493.056L4121.2928 0v6.2976H5101.056l-6.3488 6.3488 486.7072 486.7072-493.056 493.056v-12.6464z m0-12.6464V18.944l-474.112 474.112 474.112 474.0608z m-967.168 6.2976l480.4608-480.3584L4121.2928 12.6464v960.768z" fill="#E42426" p-id="4780"></path></svg>