<?xml version="1.0" standalone="no"?><!DOCTYPE svg PUBLIC "-//W3C//DTD SVG 1.1//EN" "http://www.w3.org/Graphics/SVG/1.1/DTD/svg11.dtd"><svg t="1774316968672" class="icon" viewBox="0 0 5576 1024" version="1.1" xmlns="http://www.w3.org/2000/svg" p-id="1687" xmlns:xlink="http://www.w3.org/1999/xlink" width="1089.0625" height="200"><path d="M3457.706667 19.797333l13.539555 326.940445h-33.450666c-19.399111-64.910222-44.771556-117.248-76.003556-157.070222-59.733333-74.865778-140.003556-112.298667-240.924444-112.298667-101.831111 0-185.116444 40.277333-249.799112 120.832C2806.328889 278.755556 2774.072889 389.632 2774.072889 530.773333c0 129.820444 33.962667 233.472 101.944889 310.954667 67.982222 77.425778 154.112 116.167111 258.332444 116.167111a414.833778 414.833778 0 0 0 208.213334-54.044444c36.522667-20.309333 76.572444-51.143111 120.149333-92.330667l26.965333 27.022222a487.879111 487.879111 0 0 1-120.035555 107.292445c-81.521778 52.110222-169.870222 78.165333-265.102223 78.165333-156.387556 0-280.462222-50.005333-372.394666-149.959111-84.821333-92.387556-127.260444-207.758222-127.260445-346.112 0-141.653333 44.771556-260.551111 134.371556-356.693333C2833.521778 70.200889 2956.231111 19.740444 3107.271111 19.740444c52.622222 0 106.609778 7.850667 162.076445 23.495112 55.409778 15.587556 86.471111 23.438222 93.070222 23.438222 13.767111 0 26.737778-3.811556 39.082666-11.377778 12.344889-7.566222 20.878222-19.399111 25.6-35.555556h30.549334zM1597.44 16.270222l31.971556 309.873778h-34.816c-23.665778-93.354667-61.667556-158.492444-114.062223-195.470222-52.337778-36.977778-104.106667-55.409778-155.306666-55.409778-39.765333 0-74.467556 11.719111-104.106667 35.157333-29.582222 23.438222-44.373333 56.035556-44.373333 97.735111 0 37.432889 11.377778 69.404444 34.133333 95.914667 22.755556 27.022222 58.026667 55.182222 105.813333 84.593778l128 78.904889c80.042667 49.265778 136.419556 94.492444 169.130667 135.736889 32.199111 41.642667 48.355556 90.965333 48.355556 147.797333 0 76.231111-28.842667 139.946667-86.414223 191.146667-57.571556 51.2-131.128889 76.8-220.672 76.8-44.942222 0-91.989333-8.533333-141.084444-25.6-48.981333-17.066667-77.084444-25.6-84.195556-25.6-17.066667 0-28.501333 5.233778-34.474666 15.644444a98.588444 98.588444 0 0 0-11.719111 33.393778h-31.971556l-43.349333-309.873778h33.393777c24.632889 65.422222 53.532444 117.532444 86.698667 156.387556 57.799111 67.697778 129.592889 101.603556 215.381333 101.603555 46.421333 0 86.528-14.677333 120.433778-44.032 33.848889-29.411556 50.801778-70.371556 50.801778-122.993778 0-47.331556-17.066667-88.576-51.2-123.619555-22.186667-22.300444-69.12-55.694222-140.686222-100.238222l-124.359111-77.425778c-37.432889-23.722667-67.299556-47.616-89.543111-71.793778-41.244444-45.966222-61.838222-96.654222-61.838223-152.064 0-73.443556 24.462222-134.599111 73.216-183.352889 48.810667-48.810667 113.493333-73.216 193.991111-73.216 33.166222 0 73.102222 8.192 119.751112 24.462222 46.648889 16.384 73.386667 24.576 79.985777 24.576 17.976889 0 30.435556-4.266667 37.319111-12.8 6.826667-8.533333 12.174222-20.593778 15.928889-36.238222h29.866667zM404.366222 36.864v27.022222c-53.532444 3.811556-88.348444 13.482667-104.448 29.127111-16.099556 15.644444-24.177778 49.493333-24.177778 101.603556v283.591111h441.344V194.56c0-52.110222-7.850667-85.959111-23.495111-101.603556-15.587556-15.644444-50.403556-25.315556-104.448-29.127111V36.864h404.366223v27.022222c-53.475556 3.811556-88.177778 13.482667-104.106667 29.127111-15.872 15.644444-23.779556 49.493333-23.779556 101.603556v647.452444c0 53.077333 7.964444 87.04 23.779556 102.001778 15.928889 14.904889 50.631111 24.746667 104.106667 29.468445v26.282666h-404.366223v-26.282666c57.344-5.688889 93.013333-16.099556 106.951111-31.288889 13.994667-15.132444 20.992-54.215111 20.992-117.191111V542.151111H275.740444v299.918222c0 53.077333 8.078222 87.153778 24.177778 102.343111 16.099556 15.132444 50.915556 24.860444 104.448 29.127112v26.282666H0v-26.282666c56.888889-6.144 92.387556-16.725333 106.609778-31.630223 14.222222-14.904889 21.333333-53.873778 21.333333-116.906666V194.673778c0-52.167111-7.964444-86.016-23.836444-101.660445C88.234667 77.368889 53.532444 67.697778 0 63.886222V36.864h404.366222z m1706.097778 0c116.508444 0 209.009778 18.773333 277.504 56.149333 68.437333 37.432889 102.684444 101.831111 102.684444 193.308445 0 68.721778-23.893333 120.832-71.793777 156.330666-27.022222 20.366222-67.527111 37.205333-121.514667 50.460445 66.787556 16.099556 123.904 43.008 171.235556 80.668444 47.388444 37.660444 71.111111 90.396444 71.111111 158.151111 0 113.664-52.622222 191.886222-157.809778 234.496-55.409778 22.300444-123.619556 33.393778-204.629333 33.393778h-474.737778v-26.282666c58.709333-3.299556 96.711111-12.458667 114.062222-27.306667 17.294222-14.961778 25.941333-49.664 25.941333-104.163556V194.673778c0-53.589333-8.647111-88.007111-25.941333-103.424-17.294222-15.36-55.352889-24.519111-114.062222-27.363556V36.864h407.893333zM4115.057778 0v6.314667h980.878222l-6.371556 6.314666 487.253334 487.310223-493.568 493.568v-12.629334H4115.114667v6.257778L3621.546667 493.624889 4115.114667 0z m0 12.629333V974.506667l480.938666-480.938667L4115.114667 12.629333z m968.248889 6.371556l-474.680889 474.567111 474.624 474.624V19.000889zM1990.257778 525.084444v362.439112c0 25.144889 7.111111 41.358222 21.333333 48.696888 14.222222 7.395556 47.160889 11.036444 98.759111 11.036445 74.410667 0 136.704-14.449778 186.936889-43.349333s75.320889-84.366222 75.320889-166.286223c0-81.521778-29.354667-137.159111-88.177778-167.025777-58.709333-29.866667-133.575111-44.771556-224.540444-44.771556h-42.268445c-5.916444 0-15.018667-0.227556-27.306666-0.739556z m66.787555-434.176c-30.321778 0-49.038222 2.56-56.149333 7.793778-7.054222 5.233778-10.638222 19.399111-10.638222 42.666667v328.305778l138.581333-2.104889c48.810667-0.967111 89.315556-8.817778 121.514667-23.495111 61.610667-28.444444 92.387556-79.36 92.387555-152.803556 0-86.698667-35.498667-145.180444-106.609777-175.502222-39.253333-16.611556-98.986667-24.860444-179.086223-24.860445z" fill="#787878" p-id="1688"></path></svg>